HIERARCHY
ROOT Hips
{
	OFFSET 0.000000 71.427986 0.000000
	CHANNELS 6 Xposition Yposition Zposition Xrotation Yrotation Zrotation
	JOINT Pelvis
	{
		OFFSET 0.000000 0.000000 0.000000
		CHANNELS 3 Xrotation Yrotation Zrotation
		JOINT LeftUpLeg
		{
			OFFSET 6.797100 -2.508499 -1.318700
			CHANNELS 3 Xrotation Yrotation Zrotation
			JOINT LeftLeg
			{
				OFFSET 0.069008 -29.241863 0.690200
				CHANNELS 3 Xrotation Yrotation Zrotation
				JOINT LeftFoot
				{
					OFFSET -0.069008 -29.568123 -0.266800
					CHANNELS 3 Xrotation Yrotation Zrotation
					JOINT LeftToeBase
					{
						OFFSET 3.145500 -8.631000 16.059900
						CHANNELS 3 Xrotation Yrotation Zrotation
						End Site
						{
							OFFSET 0.000000 18.501587 0.000000
						}
					}
				}
			}
			JOINT Left_ShortSleeve
			{
				OFFSET 0.265923 -10.480953 1.153800
				CHANNELS 3 Xrotation Yrotation Zrotation
				End Site
				{
					OFFSET 1.725763 19.823879 0.000000
				}
			}
		}
		JOINT RightUpLeg
		{
			OFFSET -6.797100 -2.508499 -1.318700
			CHANNELS 3 Xrotation Yrotation Zrotation
			JOINT RightLeg
			{
				OFFSET -0.082453 -29.241932 0.688000
				CHANNELS 3 Xrotation Yrotation Zrotation
				JOINT RightFoot
				{
					OFFSET 0.082453 -29.568058 -0.264600
					CHANNELS 3 Xrotation Yrotation Zrotation
					JOINT RightToeBase
					{
						OFFSET -3.115300 -8.682800 16.113400
						CHANNELS 3 Xrotation Yrotation Zrotation
						End Site
						{
							OFFSET 0.000000 18.567114 0.000000
						}
					}
				}
			}
			JOINT Right_ShortSleeve
			{
				OFFSET -0.265923 -10.480953 1.153800
				CHANNELS 3 Xrotation Yrotation Zrotation
				End Site
				{
					OFFSET -1.725766 19.823910 0.000000
				}
			}
		}
	}
	JOINT Spine
	{
		OFFSET 0.000000 13.368103 0.470500
		CHANNELS 3 Xrotation Yrotation Zrotation
		JOINT Spine1
		{
			OFFSET 0.147000 13.837402 0.538800
			CHANNELS 3 Xrotation Yrotation Zrotation
			JOINT Spine2
			{
				OFFSET 0.168000 16.242897 -1.435500
				CHANNELS 3 Xrotation Yrotation Zrotation
				JOINT Neck
				{
					OFFSET 0.217200 18.631500 -1.679100
					CHANNELS 3 Xrotation Yrotation Zrotation
					JOINT Head
					{
						OFFSET 0.000000 6.599396 1.385900
						CHANNELS 3 Xrotation Yrotation Zrotation
						JOINT Hat
						{
							OFFSET -0.532200 27.220596 -10.096100
							CHANNELS 3 Xrotation Yrotation Zrotation
							End Site
							{
								OFFSET 0.000000 22.029861 0.000000
							}
						}
						JOINT HairD
						{
							OFFSET -10.777400 17.437393 -1.325900
							CHANNELS 3 Xrotation Yrotation Zrotation
							JOINT HairD1
							{
								OFFSET -3.290299 -11.051193 1.062200
								CHANNELS 3 Xrotation Yrotation Zrotation
								End Site
								{
									OFFSET 0.000000 11.579437 0.000000
								}
							}
						}
						JOINT HairB
						{
							OFFSET -10.777400 17.437393 1.467900
							CHANNELS 3 Xrotation Yrotation Zrotation
							JOINT HairB1
							{
								OFFSET -1.561200 -12.956299 3.590200
								CHANNELS 3 Xrotation Yrotation Zrotation
								End Site
								{
									OFFSET 0.000000 13.534866 0.000000
								}
							}
						}
						JOINT HairA
						{
							OFFSET 9.713100 17.437393 1.467900
							CHANNELS 3 Xrotation Yrotation Zrotation
							JOINT HairA1
							{
								OFFSET 1.561200 -12.956299 3.590200
								CHANNELS 3 Xrotation Yrotation Zrotation
								End Site
								{
									OFFSET 0.000000 13.534866 0.000000
								}
							}
						}
						JOINT HairC
						{
							OFFSET 9.713100 17.437393 -1.325900
							CHANNELS 3 Xrotation Yrotation Zrotation
							JOINT HairC1
							{
								OFFSET 3.290300 -11.051193 1.062200
								CHANNELS 3 Xrotation Yrotation Zrotation
								End Site
								{
									OFFSET 0.000000 11.579437 0.000000
								}
							}
						}
					}
				}
				JOINT LeftShoulder
				{
					OFFSET 5.101800 15.108002 -2.763700
					CHANNELS 3 Xrotation Yrotation Zrotation
					JOINT LeftArm
					{
						OFFSET 9.825497 2.506317 -1.597400
						CHANNELS 3 Xrotation Yrotation Zrotation
						JOINT LeftForeArm
						{
							OFFSET 21.966244 0.000000 0.000000
							CHANNELS 3 Xrotation Yrotation Zrotation
							JOINT LeftHand
							{
								OFFSET 33.879036 0.000000 0.000000
								CHANNELS 3 Xrotation Yrotation Zrotation
								JOINT LeftHandThumb1
								{
									OFFSET 6.715286 -2.359680 3.363841
									CHANNELS 3 Xrotation Yrotation Zrotation
									JOINT LeftHandThumb2
									{
										OFFSET 2.507072 -1.447464 1.447461
										CHANNELS 3 Xrotation Yrotation Zrotation
										JOINT LeftHandThumb3
										{
											OFFSET 2.898338 -1.673355 1.673357
											CHANNELS 3 Xrotation Yrotation Zrotation
											End Site
											{
												OFFSET -0.295959 3.727692 -0.131651
											}
										}
									}
								}
								JOINT LeftHandIndex1
								{
									OFFSET 14.190811 -0.254547 3.840278
									CHANNELS 3 Xrotation Yrotation Zrotation
									JOINT LeftHandIndex2
									{
										OFFSET 3.551727 0.000000 -0.000000
										CHANNELS 3 Xrotation Yrotation Zrotation
										JOINT LeftHandIndex3
										{
											OFFSET 2.894196 0.000000 0.000000
											CHANNELS 3 Xrotation Yrotation Zrotation
											End Site
											{
												OFFSET -1.000603 2.690872 0.366626
											}
										}
									}
								}
								JOINT LeftHandMiddle1
								{
									OFFSET 13.776489 0.000000 0.000000
									CHANNELS 3 Xrotation Yrotation Zrotation
									JOINT LeftHandMiddle2
									{
										OFFSET 3.438232 0.000000 0.000000
										CHANNELS 3 Xrotation Yrotation Zrotation
										JOINT LeftHandMiddle3
										{
											OFFSET 3.691551 0.000000 0.000000
											CHANNELS 3 Xrotation Yrotation Zrotation
											End Site
											{
												OFFSET -1.082298 3.499527 0.457670
											}
										}
									}
								}
								JOINT LeftHandRing1
								{
									OFFSET 13.966164 -0.268127 -3.067488
									CHANNELS 3 Xrotation Yrotation Zrotation
									JOINT LeftHandRing2
									{
										OFFSET 3.162567 0.000000 0.000000
										CHANNELS 3 Xrotation Yrotation Zrotation
										JOINT LeftHandRing3
										{
											OFFSET 3.324348 0.000000 0.000000
											CHANNELS 3 Xrotation Yrotation Zrotation
											End Site
											{
												OFFSET -0.861900 3.184998 0.405154
											}
										}
									}
								}
								JOINT LeftHandPinky1
								{
									OFFSET 13.131393 -0.168503 -5.746925
									CHANNELS 3 Xrotation Yrotation Zrotation
									JOINT LeftHandPinky2
									{
										OFFSET 2.849182 0.000000 0.000000
										CHANNELS 3 Xrotation Yrotation Zrotation
										JOINT LeftHandPinky3
										{
											OFFSET 2.805038 0.000000 0.000000
											CHANNELS 3 Xrotation Yrotation Zrotation
											End Site
											{
												OFFSET -0.882500 2.642609 0.325652
											}
										}
									}
								}
							}
							JOINT Left_Sleeve
							{
								OFFSET 6.592125 -0.646545 0.805568
								CHANNELS 3 Xrotation Yrotation Zrotation
								End Site
								{
									OFFSET -0.000179 20.275787 -0.000000
								}
							}
						}
					}
				}
				JOINT RightShoulder
				{
					OFFSET -5.731700 15.108002 -2.763700
					CHANNELS 3 Xrotation Yrotation Zrotation
					JOINT RightArm
					{
						OFFSET -9.825497 2.506317 -1.597400
						CHANNELS 3 Xrotation Yrotation Zrotation
						JOINT RightForeArm
						{
							OFFSET -21.966242 0.000000 0.000000
							CHANNELS 3 Xrotation Yrotation Zrotation
							JOINT RightHand
							{
								OFFSET -33.879032 0.000000 0.000000
								CHANNELS 3 Xrotation Yrotation Zrotation
								JOINT RightHandThumb1
								{
									OFFSET -6.715286 -2.359680 3.363841
									CHANNELS 3 Xrotation Yrotation Zrotation
									JOINT RightHandThumb2
									{
										OFFSET -2.507072 -1.447464 1.447461
										CHANNELS 3 Xrotation Yrotation Zrotation
										JOINT RightHandThumb3
										{
											OFFSET -2.898338 -1.673355 1.673357
											CHANNELS 3 Xrotation Yrotation Zrotation
											End Site
											{
												OFFSET 0.295959 3.727692 -0.131651
											}
										}
									}
								}
								JOINT RightHandIndex1
								{
									OFFSET -14.190811 -0.254547 3.840278
									CHANNELS 3 Xrotation Yrotation Zrotation
									JOINT RightHandIndex2
									{
										OFFSET -3.551727 0.000000 -0.000000
										CHANNELS 3 Xrotation Yrotation Zrotation
										JOINT RightHandIndex3
										{
											OFFSET -2.894196 0.000000 0.000000
											CHANNELS 3 Xrotation Yrotation Zrotation
											End Site
											{
												OFFSET 1.000603 2.690872 0.366626
											}
										}
									}
								}
								JOINT RightHandMiddle1
								{
									OFFSET -13.776489 0.000000 0.000000
									CHANNELS 3 Xrotation Yrotation Zrotation
									JOINT RightHandMiddle2
									{
										OFFSET -3.438232 0.000000 0.000000
										CHANNELS 3 Xrotation Yrotation Zrotation
										JOINT RightHandMiddle3
										{
											OFFSET -3.691551 0.000000 0.000000
											CHANNELS 3 Xrotation Yrotation Zrotation
											End Site
											{
												OFFSET 1.082298 3.499527 0.457670
											}
										}
									}
								}
								JOINT RightHandRing1
								{
									OFFSET -13.966164 -0.268127 -3.067488
									CHANNELS 3 Xrotation Yrotation Zrotation
									JOINT RightHandRing2
									{
										OFFSET -3.162567 0.000000 0.000000
										CHANNELS 3 Xrotation Yrotation Zrotation
										JOINT RightHandRing3
										{
											OFFSET -3.324348 0.000000 0.000000
											CHANNELS 3 Xrotation Yrotation Zrotation
											End Site
											{
												OFFSET 0.861900 3.184998 0.405154
											}
										}
									}
								}
								JOINT RightHandPinky1
								{
									OFFSET -13.131393 -0.168503 -5.746925
									CHANNELS 3 Xrotation Yrotation Zrotation
									JOINT RightHandPinky2
									{
										OFFSET -2.849182 0.000000 0.000000
										CHANNELS 3 Xrotation Yrotation Zrotation
										JOINT RightHandPinky3
										{
											OFFSET -2.805038 0.000000 0.000000
											CHANNELS 3 Xrotation Yrotation Zrotation
											End Site
											{
												OFFSET 0.882500 2.642609 0.325652
											}
										}
									}
								}
							}
							JOINT Right_Sleeve
							{
								OFFSET -6.592125 -0.646545 0.805568
								CHANNELS 3 Xrotation Yrotation Zrotation
								End Site
								{
									OFFSET 0.000179 20.275787 -0.000000
								}
							}
						}
					}
				}
				JOINT Bind_Right_JacketString
				{
					OFFSET -3.534800 11.969597 7.200700
					CHANNELS 3 Xrotation Yrotation Zrotation
					JOINT Bind_Right_JacketString1
					{
						OFFSET -0.319900 -6.102600 2.794100
						CHANNELS 3 Xrotation Yrotation Zrotation
						End Site
						{
							OFFSET 0.000000 6.719452 0.000000
						}
					}
				}
				JOINT Bind_Left_JacketString
				{
					OFFSET 2.904800 11.969597 7.200700
					CHANNELS 3 Xrotation Yrotation Zrotation
					JOINT Bind_Left_JacketString1
					{
						OFFSET 0.364800 -5.904503 3.186800
						CHANNELS 3 Xrotation Yrotation Zrotation
						End Site
						{
							OFFSET 0.000000 6.719513 0.000000
						}
					}
				}
				JOINT HairE
				{
					OFFSET 5.915200 17.612701 -11.592200
					CHANNELS 3 Xrotation Yrotation Zrotation
					JOINT HairE1
					{
						OFFSET 0.289200 -7.171898 -1.284500
						CHANNELS 3 Xrotation Yrotation Zrotation
						End Site
						{
							OFFSET 0.000000 7.291756 0.000000
						}
					}
				}
				JOINT HairF
				{
					OFFSET -0.864800 17.612701 -11.592200
					CHANNELS 3 Xrotation Yrotation Zrotation
					JOINT HairF1
					{
						OFFSET 0.000000 -14.087097 -2.127501
						CHANNELS 3 Xrotation Yrotation Zrotation
						End Site
						{
							OFFSET 0.000000 14.246841 0.000000
						}
					}
				}
				JOINT HairG
				{
					OFFSET -8.087700 17.612701 -11.592200
					CHANNELS 3 Xrotation Yrotation Zrotation
					JOINT HairG1
					{
						OFFSET -0.293600 -6.081398 -0.910100
						CHANNELS 3 Xrotation Yrotation Zrotation
						End Site
						{
							OFFSET 0.000000 6.156120 0.000000
						}
					}
				}
			}
		}
	}
	JOINT Pouch
	{
		OFFSET 0.000000 4.394501 10.847300
		CHANNELS 3 Xrotation Yrotation Zrotation
		End Site
		{
			OFFSET 0.000000 21.880577 0.000000
		}
	}
	JOINT Bag
	{
		OFFSET -13.229000 4.813004 -0.593300
		CHANNELS 3 Xrotation Yrotation Zrotation
		End Site
		{
			OFFSET 0.000000 21.880577 0.000000
		}
	}
	JOINT OccupyGuyFacialAnim_Joint
	{
		OFFSET 1.000000 -70.206398 -1.655000
		CHANNELS 3 Xrotation Yrotation Zrotation
		End Site
		{
			OFFSET 0.000000 21.880577 0.000000
		}
	}
}
MOTION
Frames: 4
Frame Time: 0.033333
4.080984 55.619987 12.006901 24.373055 -34.411702 28.026486 -0.000000 -0.000001 -0.000000 -54.005309 19.175913 40.623766 42.298989 -9.743987 -16.428611 -7.588770 -12.008059 -17.433423 0.000000 -0.000000 -0.000000 -0.000003 0.000003 -0.000002 -81.511430 2.575415 -41.830742 73.452271 -1.498342 8.627038 -13.959248 46.081531 2.795990 0.000000 0.000000 0.000000 -0.000000 -0.000000 -0.000001 12.498189 -1.679221 0.408963 21.200152 -2.483173 1.656782 18.976653 -2.748834 1.590936 -9.892995 -9.123120 -6.489405 -46.992579 -50.997843 3.442312 0.000001 -0.000000 -0.000001 0.000001 -0.000000 -0.000001 0.000001 -0.000000 -0.000001 0.000001 -0.000000 -0.000000 0.000001 0.000000 -0.000000 0.000001 -0.000000 -0.000000 0.000001 0.000000 -0.000000 0.000001 -0.000000 -0.000001 0.000001 -0.000000 -0.000001 5.473140 -1.696601 -5.326853 -23.387017 -1.620905 -14.924665 -195.989464 -119.423781 -205.652420 -54.784141 -19.506913 -15.020214 12.004504 -8.536842 -13.324544 2.614889 25.098500 15.479357 -0.000001 0.000001 -0.000001 0.148489 4.644448 -60.623270 2.503309 4.561960 -57.492045 0.000002 -0.000001 -0.000000 1.224055 7.472589 -60.465220 2.503307 4.561982 -57.492031 0.000002 0.000002 -0.000003 3.682086 13.857733 -60.397450 2.503160 4.561877 -57.490324 0.000001 0.000000 0.000001 5.058579 17.366719 -60.536274 2.493463 4.562684 -57.490269 0.000000 0.000003 -0.000000 0.000001 0.000000 0.000000 6.828006 8.799205 1.763071 -29.970662 -18.641558 25.723925 -50.515423 65.329988 53.102040 -19.976662 22.310002 9.530782 4.976612 21.382937 2.213542 0.507678 -23.345795 -12.476420 0.000001 0.000002 0.000002 12.122379 6.044410 50.400806 -7.697777 -0.674899 79.578445 0.000001 0.000000 0.000002 -1.772429 -4.105820 58.931398 3.026752 -4.850990 63.850343 0.000000 -0.000001 -0.000001 -3.233628 -0.068516 59.143633 -6.550615 -10.711017 63.740924 0.000002 0.000000 0.000000 -7.303584 -17.509238 56.167880 4.457504 -5.321029 79.971304 0.000001 -0.000000 -0.000003 0.000001 -0.000000 0.000001 0.000000 0.000001 0.000002 0.000000 0.000000 -0.000002 0.000000 0.000001 0.000001 0.000000 0.000001 0.000001 0.000000 0.000001 0.000002 0.000000 0.000000 -0.000002 0.000000 0.000001 0.000001 0.000000 0.000001 0.000001 0.000000 0.000001 0.000002 0.000000 0.000000 -0.000002 -0.000000 -0.000001 -0.000000 -0.000000 -0.000001 -0.000000 -0.000000 -0.000001 -0.000000 
3.987684 55.512238 11.792845 24.678515 -34.595444 28.296123 -0.000000 -0.000001 -0.000000 -54.255181 19.327139 41.080565 42.195580 -9.445838 -16.614589 -7.305533 -12.306919 -17.539154 -0.000000 0.000000 0.000000 0.000002 0.000000 -0.000002 -81.995554 2.647655 -41.639603 73.919046 -1.940381 8.903495 -13.767062 46.708604 2.213490 0.000000 0.000001 -0.000000 -0.000000 0.000000 -0.000000 12.630496 -1.718395 0.507909 21.353762 -2.562932 1.843859 19.046141 -2.840782 1.770394 -9.956910 -9.160702 -6.638604 -48.281576 -51.248111 2.434737 0.000000 0.000000 -0.000001 0.000000 0.000000 -0.000001 0.000000 0.000000 -0.000001 0.000000 0.000000 -0.000000 0.000000 0.000000 -0.000000 0.000000 0.000000 -0.000000 0.000000 0.000000 -0.000000 0.000000 0.000000 -0.000001 0.000000 0.000000 -0.000001 5.625755 -1.708399 -5.189680 -23.235216 -1.968175 -14.954006 -196.464545 -119.282041 -205.871928 -54.784135 -19.506906 -15.020214 12.212619 -8.516922 -13.476882 2.637964 25.250291 15.505200 -0.000002 -0.000000 0.000000 0.215113 4.760581 -60.562727 2.498542 4.558940 -57.432438 0.000000 0.000002 -0.000003 1.262717 7.542368 -60.405804 2.498558 4.558957 -57.432431 0.000001 -0.000001 0.000000 3.657332 13.822575 -60.335712 2.498433 4.558878 -57.430717 0.000001 0.000003 -0.000001 4.997609 17.274158 -60.470117 2.488745 4.559673 -57.430676 0.000002 0.000001 0.000003 0.000001 0.000001 -0.000000 6.995334 8.894227 1.528448 -30.051084 -18.078292 25.629469 -50.495831 65.311205 53.078165 -20.546117 21.642272 9.991236 5.564067 21.571300 1.978828 0.478856 -23.104577 -12.639139 -0.000002 -0.000001 0.000002 12.163955 6.020851 50.311348 -7.698396 -0.662661 79.525730 -0.000003 -0.000001 -0.000002 -1.764253 -4.111732 59.026502 3.022515 -4.848905 63.800155 0.000003 -0.000002 0.000001 -3.207492 -0.027949 59.214482 -6.552691 -10.708664 63.690606 -0.000001 0.000002 -0.000002 -7.484737 -17.376085 56.026905 4.439695 -5.317836 79.779321 0.000001 0.000001 -0.000003 0.000002 0.000001 -0.000002 0.000001 0.000001 -0.000002 0.000001 0.000000 -0.000002 0.000001 0.000001 -0.000004 0.000001 0.000001 -0.000004 0.000001 0.000001 -0.000002 0.000001 0.000000 -0.000002 0.000001 0.000001 -0.000004 0.000001 0.000001 -0.000004 0.000001 0.000001 -0.000002 0.000001 0.000000 -0.000002 -0.000000 -0.000001 -0.000000 -0.000000 -0.000001 -0.000000 -0.000000 -0.000001 -0.000000 
3.952332 55.391685 11.618987 24.914710 -34.635114 28.497028 -0.000001 -0.000002 -0.000000 -54.658794 19.382494 41.397131 42.322806 -9.282009 -16.669451 -7.135772 -12.556306 -17.601939 -0.000000 0.000000 -0.000000 -0.000002 0.000000 -0.000000 -82.491528 2.718159 -41.640942 74.408791 -2.415795 9.183766 -13.599310 47.320701 1.682496 0.000000 0.000001 -0.000000 -0.000000 -0.000001 -0.000001 12.758143 -1.741053 0.589861 21.497617 -2.603874 1.995842 19.105489 -2.893456 1.915881 -10.050752 -9.165342 -6.866586 -49.743325 -51.404939 1.337845 0.000001 0.000000 -0.000000 0.000001 0.000000 -0.000000 0.000001 0.000000 0.000000 0.000001 0.000000 0.000000 0.000001 -0.000000 -0.000001 0.000001 0.000000 0.000000 0.000001 -0.000000 -0.000001 0.000001 0.000000 -0.000000 0.000001 0.000000 -0.000000 5.767727 -1.664917 -5.067356 -23.210607 -2.440840 -14.922462 -196.950267 -119.124674 -206.105207 -54.784145 -19.506906 -15.020213 12.424705 -8.497224 -13.632989 2.661420 25.405309 15.531654 -0.000002 -0.000001 -0.000000 0.282872 4.879360 -60.500839 2.493713 4.555854 -57.371588 0.000001 0.000002 -0.000003 1.302024 7.613725 -60.345070 2.493710 4.555866 -57.371574 0.000000 0.000003 0.000001 3.632140 13.786648 -60.272704 2.493595 4.555793 -57.369860 -0.000002 0.000001 -0.000002 4.935607 17.179505 -60.402587 2.483902 4.556598 -57.369805 -0.000001 0.000001 -0.000001 0.000000 0.000001 -0.000000 7.170988 9.011235 1.250703 -30.149760 -17.620828 25.478088 -50.703780 65.378789 53.304763 -21.351977 20.879770 10.375859 6.201924 21.584474 1.712342 0.450182 -22.861516 -12.803159 0.000003 -0.000003 0.000002 12.180498 6.022152 50.172825 -7.698656 -0.657326 79.502903 -0.000003 0.000000 -0.000001 -1.755967 -4.117671 59.122958 3.018208 -4.846797 63.749250 -0.000002 -0.000001 0.000001 -3.181085 0.013306 59.286363 -6.554831 -10.706284 63.639543 -0.000000 -0.000001 -0.000000 -7.670431 -17.236397 55.864285 4.424011 -5.314991 79.609796 -0.000003 0.000001 0.000002 -0.000000 0.000000 0.000002 -0.000002 0.000000 -0.000001 -0.000001 -0.000000 -0.000001 -0.000002 0.000000 -0.000001 -0.000002 0.000000 -0.000001 -0.000002 0.000000 -0.000001 -0.000001 -0.000000 -0.000001 -0.000002 0.000000 -0.000001 -0.000002 0.000000 -0.000001 -0.000002 0.000000 -0.000001 -0.000001 -0.000000 -0.000001 -0.000001 -0.000002 -0.000000 -0.000001 -0.000002 -0.000000 -0.000001 -0.000002 -0.000000 
3.972191 55.274063 11.484830 25.073433 -34.489163 28.642504 -0.000000 0.000003 -0.000001 -55.096544 19.279563 41.483485 42.578115 -9.152756 -16.691060 -7.027099 -12.734260 -17.606722 -0.000000 0.000000 0.000000 -0.000000 -0.000001 0.000001 -82.920826 2.875748 -41.697639 74.963136 -3.004550 9.512665 -13.506702 47.304278 1.209239 0.000000 -0.000001 0.000000 0.000001 -0.000001 -0.000000 12.894064 -1.740511 0.634074 21.648375 -2.583422 2.089256 19.172420 -2.878859 2.004696 -10.170048 -9.121978 -7.067354 -51.186780 -51.263227 0.272178 0.000000 0.000000 -0.000000 0.000000 0.000000 -0.000000 0.000000 0.000000 -0.000000 0.000000 0.000000 -0.000000 -0.000001 -0.000001 0.000001 0.000000 0.000000 -0.000000 -0.000001 -0.000001 0.000001 0.000000 0.000000 -0.000000 0.000000 0.000000 -0.000000 5.915465 -1.641275 -4.917592 -23.595578 -2.953669 -14.914299 -197.491150 -118.874388 -206.403522 -54.784141 -19.506909 -15.020216 12.640413 -8.477836 -13.792673 2.685294 25.563340 15.558592 0.000001 0.000001 -0.000003 0.351649 5.000558 -60.437735 2.488805 4.552712 -57.309529 -0.000000 0.000004 -0.000003 1.341895 7.686522 -60.283188 2.488792 4.552722 -57.309501 0.000002 0.000000 -0.000001 3.606536 13.749971 -60.208500 2.488664 4.552648 -57.307801 -0.000002 -0.000002 0.000001 4.872659 17.082884 -60.333854 2.478957 4.553427 -57.307766 0.000003 0.000001 0.000001 0.000001 0.000001 -0.000000 7.348407 9.138705 1.014164 -30.265972 -17.235818 25.227963 -50.803698 65.405919 53.412564 -22.298317 20.074747 10.828013 6.896555 21.422057 1.399420 0.421653 -22.616756 -12.968427 0.000001 0.000000 -0.000002 12.163835 6.062553 49.945287 -7.698175 -0.667006 79.544520 -0.000001 0.000002 -0.000001 -1.747579 -4.123674 59.220718 3.013859 -4.844656 63.697682 0.000002 -0.000004 0.000000 -3.154474 0.055187 59.359139 -6.556981 -10.703894 63.587845 -0.000002 -0.000001 0.000002 -7.868812 -17.078485 55.630303 4.410955 -5.312565 79.469019 -0.000003 -0.000002 0.000000 0.000001 -0.000001 0.000000 -0.000000 0.000000 -0.000000 0.000000 0.000000 -0.000000 -0.000000 0.000000 -0.000000 -0.000000 0.000000 -0.000000 -0.000000 0.000000 -0.000000 0.000000 0.000000 -0.000000 -0.000000 0.000000 -0.000000 -0.000000 0.000000 -0.000000 -0.000000 0.000000 -0.000000 0.000000 0.000000 -0.000000 -0.000000 0.000003 -0.000001 -0.000000 0.000003 -0.000001 -0.000000 0.000003 -0.000001 
